# xmcd CD database file
#
# Track frame offsets:
#	200
#	14182
#	31275
#	46610
#	57970
#	72610
#	89270
#	106877
#	123302
#	136590
#	149227
#	161352
#	174340
#	188295
#
# Disc length: 2732 seconds
#
# Revision: 0
# Processed by: cddbd v1.5.1PL0 Copyright (c) Steve Scherf et al.
# Submitted via: CDex 1.60beta1
#
DISCID=b90aaa0e
DTITLE=Sally Harmon - Let It Snow!
DYEAR=1994
DGENRE=New Age
TTITLE0=Santa Claus Is Coming to Town
TTITLE1=Jolly Old St. Nicholas
TTITLE2=Let It Snow! Let It Snow! Let It Snow!
TTITLE3=Pat-A-Pan
TTITLE4=Winter Wonderland
TTITLE5=Blue Christmas
TTITLE6=We're Walking in the Air {Snowman}
TTITLE7=Linus and Lucy
TTITLE8=Feliz Navidad
TTITLE9=Jingle Bell Rock
TTITLE10=Deck the Halls
TTITLE11=We Will Rock You (The Lullaby)
TTITLE12=Jingle Bells
TTITLE13=Go Tell It on the Mountain
EXTD=YEAR: 1994
EXTT0=
EXTT1=
EXTT2=
EXTT3=
EXTT4=
EXTT5=
EXTT6=
EXTT7=
EXTT8=
EXTT9=
EXTT10=
EXTT11=
EXTT12=
EXTT13=
PLAYORDER=
